<?xml version="1.0" encoding="utf-8"?>
<!-- Generator: Adobe Illustrator 16.0.0, SVG Export Plug-In . SVG Version: 6.00 Build 0)  -->
<!DOCTYPE svg PUBLIC "-//W3C//DTD SVG 1.1 Tiny//EN" "http://www.w3.org/Graphics/SVG/1.1/DTD/svg11-tiny.dtd">
<svg version="1.1" baseProfile="tiny" id="Khronos" xmlns="http://www.w3.org/2000/svg" xmlns:xlink="http://www.w3.org/1999/xlink"
	 x="0px" y="0px" width="2100px" height="500px" viewBox="0 0 2100 500" xml:space="preserve">
<g id="TM_2_">
	<path fill="#231F20" d="M1987.22,124.7h-7.35v19.11h-6.42V124.7h-7.35v-5.52h21.11V124.7L1987.22,124.7z"/>
	<path fill="#231F20" d="M1990.09,119.18h9.45l4.24,16.42h0.07l4.24-16.42h9.46v24.63h-6.04v-18.7h-0.07l-5.18,18.7h-4.9l-5.18-18.7
		h-0.07v18.7h-6.04V119.18L1990.09,119.18z"/>
</g>
<g id="KHR_NOS">
	<path fill="#231F20" d="M137.15,326.28H97.53V123.81h39.62V326.28z M137.7,225.74l61.29-101.93h44.16L178.1,224.35l65.05,101.93
		h-44.16L137.7,225.74z"/>
	<path fill="#231F20" d="M378.59,244.12v82.16h-39.62V123.81h39.62v82.16h65.29v-82.16h39.62v202.47h-39.62v-82.16H378.59z"/>
	<path fill="#231F20" d="M639.65,326.28h-39.61V123.81h48.13c15.31,0,26.7,0.53,34.17,1.6c7.48,1.06,13.85,2.81,19.15,5.22
		c11.51,5.38,20.28,12.89,26.31,22.54c6.03,9.65,9.05,20.96,9.05,33.96c0,15.68-4.31,28.96-12.92,39.87
		c-8.61,10.9-20.32,17.83-35.13,20.8l50.55,78.5h-47.2l-52.5-93.85V326.28z M639.65,222.48h8.8c16.1,0,28.32-2.9,36.66-8.71
		c8.33-5.81,12.5-14.29,12.5-25.44c0-10.78-3.5-18.73-10.48-23.84c-6.98-5.11-17.88-7.67-32.67-7.67h-14.8V222.48z"/>
	<path fill="#231F20" d="M1298.67,326.28h-38.88V123.81h37.59l83.82,129.32V123.81h38.88v202.47h-36.8l-84.61-133.22V326.28z"/>
	<path fill="#231F20" d="M1528.05,224.63c0-11.12,1.48-21.63,4.45-31.5c2.97-9.87,7.38-19.12,13.22-27.74
		c10.02-14.56,22.59-25.8,37.72-33.72c15.12-7.93,31.63-11.9,49.54-11.9c13.45,0,26.42,2.6,38.9,7.79
		c12.48,5.19,23.64,12.66,33.47,22.39c10.11,10.1,17.81,21.46,23.1,34.07c5.29,12.61,7.94,25.88,7.94,39.78
		c0,14.46-2.48,28.05-7.45,40.75c-4.96,12.7-12.27,23.96-21.92,33.79c-9.74,10.29-21.09,18.2-34.03,23.71
		c-12.95,5.51-26.47,8.27-40.57,8.27c-15.12,0-29.04-2.69-41.76-8.06c-12.71-5.38-23.98-13.35-33.81-23.92
		c-9.47-10.01-16.63-21.25-21.5-33.72C1530.49,252.15,1528.05,238.82,1528.05,224.63z M1569.5,223.24c0,8.71,1.44,16.82,4.32,24.32
		c2.88,7.5,7.15,14.36,12.81,20.56c6.22,6.76,13.28,11.97,21.16,15.64c7.89,3.65,16.06,5.48,24.51,5.48c17.73,0,32.6-6.3,44.62-18.9
		c12.02-12.6,18.04-28.29,18.04-47.1c0-17.23-6.06-31.93-18.17-44.11c-12.11-12.18-26.66-18.27-43.65-18.27
		c-17.73,0-32.77,6.07-45.11,18.2C1575.67,191.19,1569.5,205.92,1569.5,223.24z"/>
	<path fill="#231F20" d="M1832.01,263.56l36.32-0.14v2.9c0,8.48,2.2,15.27,6.61,20.38c4.41,5.11,10.29,7.67,17.64,7.67
		c7.9,0,14.14-2.38,18.74-7.14c4.59-4.77,6.89-11.22,6.89-19.36c0-13.04-9.31-22.38-27.94-28.02c-2.4-0.74-4.29-1.34-5.68-1.8
		c-15.73-4.92-27.38-11.9-34.98-20.94c-7.58-9.05-11.37-20.47-11.37-34.29c0-19.02,5.26-34.27,15.78-45.78
		c10.52-11.5,24.54-17.25,42.07-17.25c16.4,0,29.48,5.12,39.21,15.35c9.73,10.23,15.16,24.56,16.27,42.97h-35.94v-1.65
		c0-6.42-1.96-11.6-5.85-15.54c-3.9-3.94-9-5.92-15.31-5.92c-6.5,0-11.62,2.03-15.38,6.08c-3.76,4.06-5.64,9.58-5.64,16.59
		c0,2.95,0.39,5.55,1.18,7.81c0.79,2.26,2.02,4.31,3.69,6.15c3.8,4.18,11.97,8.03,24.48,11.55c5.56,1.48,9.83,2.73,12.8,3.75
		c13.91,4.73,24.17,11.5,30.8,20.31c6.62,8.82,9.94,20.08,9.94,33.8c0,20.87-5.79,37.64-17.37,50.29
		c-11.58,12.66-26.95,18.98-46.12,18.98c-18.06,0-32.65-6.1-43.76-18.31C1837.99,299.79,1832.29,283.64,1832.01,263.56z"/>
</g>
<g id="GROUP">
	<path fill="#231F20" d="M1442.3,367.15l-5.42,5.97c-2.64-2.28-5.29-3.96-7.96-5.02c-2.66-1.06-5.51-1.59-8.55-1.59
		c-6.19,0-11.37,2.15-15.54,6.46c-4.17,4.3-6.25,9.61-6.25,15.91c0,6.3,2.08,11.61,6.25,15.92c4.17,4.3,9.35,6.46,15.54,6.46
		c2.75,0,5.34-0.44,7.75-1.3c2.43-0.86,4.68-2.17,6.77-3.92v-13.4h-12.01v-7.88h20.63v26.02c-3.78,2.95-7.58,5.14-11.39,6.58
		c-3.81,1.43-7.73,2.15-11.75,2.15c-8.77,0-16.06-2.91-21.87-8.73c-5.81-5.82-8.72-13.11-8.72-21.9c0-3.86,0.69-7.59,2.08-11.19
		c1.39-3.59,3.36-6.8,5.93-9.6c2.91-3.17,6.28-5.59,10.13-7.25c3.84-1.67,8-2.5,12.46-2.5c4.28,0,8.37,0.78,12.27,2.34
		C1436.55,362.26,1439.77,364.42,1442.3,367.15z"/>
	<path fill="#231F20" d="M1526.79,359.91h11.14c3.14,0,5.72,0.18,7.71,0.53c1.99,0.36,3.76,0.94,5.3,1.73
		c2.48,1.32,4.46,3.29,5.93,5.92s2.2,5.56,2.2,8.79c0,3.83-1.24,7.14-3.73,9.91c-2.48,2.77-5.78,4.51-9.87,5.19l17.72,24.03
		l-8.2,3.51l-19.49-28.29v26.72l-8.71,0.74V359.91z M1535.5,367.62v18.43h3.14c3.74,0,6.62-0.83,8.66-2.5
		c2.04-1.66,3.06-3.99,3.06-6.98c0-2.96-0.98-5.19-2.92-6.7c-1.95-1.51-4.81-2.26-8.61-2.26H1535.5z"/>
	<path fill="#231F20" d="M1670.08,358.36c3.8,0,7.41,0.62,10.83,1.86c3.42,1.25,6.47,3.03,9.13,5.36c3.43,3.07,6.07,6.61,7.88,10.63
		c1.83,4.02,2.74,8.26,2.74,12.7c0,3.84-0.7,7.56-2.09,11.17c-1.38,3.61-3.37,6.85-5.96,9.7c-2.88,3.17-6.24,5.59-10.09,7.26
		c-3.84,1.66-8,2.5-12.46,2.5c-3.83,0-7.45-0.63-10.85-1.87c-3.41-1.24-6.42-3.03-9.03-5.35c-3.46-3.1-6.11-6.65-7.95-10.67
		c-1.83-4.02-2.76-8.26-2.76-12.73c0-4.44,0.93-8.68,2.77-12.71c1.85-4.04,4.49-7.57,7.93-10.61c2.61-2.33,5.62-4.11,9.03-5.36
		C1662.63,358.97,1666.25,358.36,1670.08,358.36z M1670.08,366.52c-6.19,0-11.37,2.15-15.53,6.46c-4.16,4.3-6.24,9.61-6.24,15.91
		c0,6.33,2.07,11.64,6.22,15.93c4.16,4.29,9.34,6.45,15.55,6.45c6.16,0,11.33-2.16,15.51-6.48c4.17-4.32,6.26-9.62,6.26-15.9
		c0-6.31-2.08-11.61-6.25-15.91C1681.46,368.67,1676.27,366.52,1670.08,366.52z"/>
	<path fill="#231F20" d="M1791.24,359.09v32.99c0,7.01,0.9,11.93,2.7,14.76c1.8,2.83,4.82,4.25,9.08,4.25
		c4.27,0,7.37-1.34,9.29-4.03c1.91-2.68,2.87-7.12,2.87-13.35v-33.79l8.44-0.83v36.56c0,4.73-0.35,8.36-1.05,10.88
		c-0.7,2.52-1.87,4.74-3.51,6.63c-1.64,1.91-3.87,3.43-6.69,4.56c-2.83,1.13-5.79,1.71-8.88,1.71c-7.03,0-12.28-1.97-15.75-5.9
		c-3.47-3.94-5.21-9.9-5.21-17.88v-35.73L1791.24,359.09z"/>
	<path fill="#231F20" d="M1908.48,359.91h15.37c6.64,0,11.69,1.49,15.17,4.47c3.48,2.98,5.21,7.36,5.21,13.11
		c0,5.44-1.99,9.74-5.99,12.9c-4,3.15-9.48,4.73-16.46,4.73c-0.93,0-2.38-0.05-4.36-0.16c-0.11,0-0.19-0.01-0.24-0.04v23.04
		l-8.71,0.74V359.91z M1917.19,367.62v19.41c0.76,0.13,1.58,0.23,2.44,0.29c0.87,0.07,1.83,0.11,2.92,0.11
		c4.23,0,7.43-0.85,9.62-2.52c2.18-1.68,3.27-4.14,3.27-7.38c0-3.41-1-5.91-3.03-7.51c-2.02-1.6-5.21-2.39-9.55-2.39H1917.19z"/>
</g>
<path id="Top_Swoosh" fill="#CC3333" d="M985.54,313.14c-69.53-2.46-164.38-34.19-184.06-80.02
	c-17.02-41.68-0.12-90.24,80.13-124.65c47.6-19.83,119.63-25.44,175.09-20.35c78.74,7.21,153.73,47.94,153.83,48.05v57.06
	l-0.06,3.84c0,0-24.41-22.12-54.91-39.92c-28.71-16.77-55.05-28.61-107.24-33.44c-12.21-1.13-33.02-3.86-66.71,0.83
	c-13.61,1.9-32.79,3.34-75.96,22.28c-14.04,6.66-26.89,13.81-36.87,22.09c-5.23,4.34-12.28,10.45-17.31,15.6
	c-12.31,15.44-18.85,27.01-15.72,48.02c3.6,15.79,10.63,25.72,30.87,40.82c8.78,6.55,9.81,6.52,13.7,8.53
	c36.29,18.76,65.3,25.68,106.74,30.87"/>
<path id="Bottom_Swoosh" fill="#CC3333" d="M989.27,135.07c69.67-0.28,168.5,27.63,194.21,72.57c22.52,40.9,12.12,90-63.35,127.48
	c-44.84,21.65-115.94,30.08-171.94,27.19c-79.49-4.11-159.69-41.78-159.81-41.89l-7.58-56.9l-0.45-3.84c0,0,27.29,21.11,60.07,37.66
	c30.87,15.61,58.71,26.38,111.41,29.14c12.32,0.65,33.45,2.55,66.42-3.45c13.33-2.42,32.27-4.61,72.81-25.21
	c13.11-7.19,24.98-14.83,33.84-23.49c4.63-4.54,10.85-10.9,15.19-16.23c10.22-15.88,15.21-27.69,9.3-48.51
	c-5.7-15.61-14.03-25.24-36.22-39.51c-9.62-6.19-10.64-6.11-14.8-7.97c-38.69-17.27-68.54-23.03-110.56-26.58"/>
</svg>
